<?xml version="1.0" encoding="utf-8"?>
<svg viewBox="-11.724 17.43 518.641 398.631" xmlns="http://www.w3.org/2000/svg">
  <defs>
    <linearGradient id="a" x1="506.032" y1="2.918" x2="512.189" y2="827.428" gradientUnits="userSpaceOnUse" gradientTransform="matrix(0.839225, 0, 0, 0.839225, -130.055004, -35.440598)">
      <stop stop-color="#fff"/>
      <stop offset="1" stop-color="#EEE"/>
    </linearGradient>
    <linearGradient id="b" x1="393.969" y1="651.312" x2="387.765" y2="-176.229" gradientUnits="userSpaceOnUse" gradientTransform="matrix(0.839225, 0, 0, 0.839225, -130.055004, -35.440598)">
      <stop stop-color="#fff"/>
      <stop offset="1" stop-color="#EEE"/>
    </linearGradient>
  </defs>
  <path fill-rule="evenodd" clip-rule="evenodd" d="M 356.259 374.716 L 124.569 374.716 C 110.827 374.716 99.688 362.364 99.688 347.128 C 99.688 331.892 110.827 319.54 124.569 319.54 L 211.922 319.54 C 221.728 319.54 229.68 310.727 229.684 299.854 L 229.685 298.924 C 229.689 288.546 222.103 280.128 212.744 280.128 L 211.983 280.128 C 187.301 280.128 167.395 257.833 167.726 230.47 C 167.77 226.782 167.771 223.097 167.728 219.408 C 167.411 192.057 187.311 169.776 211.904 169.776 L 319.438 169.776 C 330.437 169.776 339.354 159.89 339.354 147.695 C 339.354 128.794 353.17 113.474 370.215 113.474 L 393.798 113.474 C 410.842 113.474 424.659 128.794 424.659 147.695 L 424.659 210.001 C 424.659 227.588 437.517 241.843 453.376 241.843 L 467.312 241.843 C 489.185 241.843 506.917 261.505 506.917 285.759 C 506.917 310.012 489.185 329.675 467.312 329.675 L 395.225 329.675 C 385.175 329.675 377.331 338.784 377.616 349.924 L 377.63 350.526 C 377.925 363.803 368.238 374.716 356.259 374.716 Z" fill="url(#a)" style=""/>
  <path fill-rule="evenodd" clip-rule="evenodd" d="M 138.934 101.949 L 370.624 101.949 C 384.366 101.949 395.505 114.346 395.505 129.639 C 395.505 144.931 384.366 157.328 370.624 157.328 L 283.271 157.328 C 273.465 157.328 265.513 166.173 265.509 177.086 L 265.507 178.021 C 265.504 188.436 273.09 196.884 282.45 196.884 L 283.209 196.884 C 307.892 196.884 327.797 219.262 327.467 246.726 C 327.423 250.427 327.422 254.127 327.465 257.828 C 327.782 285.28 307.882 307.642 283.289 307.642 L 175.755 307.642 C 164.756 307.642 155.839 317.565 155.839 329.805 C 155.839 348.775 142.023 364.151 124.978 364.151 L 101.395 364.151 C 84.351 364.151 70.534 348.775 70.534 329.805 L 70.534 267.27 C 70.534 249.618 57.677 235.31 41.817 235.31 L 27.882 235.31 C 6.008 235.31 -11.724 215.576 -11.724 191.233 C -11.724 166.891 6.008 147.157 27.882 147.157 L 99.968 147.157 C 110.018 147.157 117.862 138.013 117.577 126.832 L 117.563 126.228 C 117.268 112.902 126.955 101.949 138.934 101.949 Z" fill="url(#b)" style=""/>
  <path d="M 418.799 235.683 C 409.185 256.202 381.743 269.161 381.743 269.161 C 381.743 269.161 370.434 238.032 380.048 217.513 C 389.677 196.994 406.136 184.424 416.839 189.449 C 427.541 194.459 428.413 215.164 418.799 235.683 Z M 359.528 259.92 C 370.247 279.879 364.257 309.624 364.257 309.624 C 364.257 309.624 332.537 300.134 321.819 280.159 C 311.101 260.185 310.851 239.479 321.275 233.894 C 331.682 228.31 348.81 239.961 359.528 259.92 Z M 347.86 375.116 C 347.534 379.037 347.098 381.728 346.989 382.412 C 346.974 382.49 346.974 382.552 346.958 382.583 L 346.958 382.599 C 346.958 382.599 346.943 382.599 346.943 382.583 L 346.834 382.568 C 346.492 382.459 345.465 382.148 343.924 381.634 C 335.695 378.85 312.983 369.967 303.976 353.928 C 292.884 334.172 292.262 313.451 302.56 307.678 C 312.858 301.892 330.204 313.217 341.296 332.974 C 346.258 341.826 347.923 352.684 348.219 362.002 C 348.39 367.012 348.172 371.569 347.86 375.116 Z M 413.681 316.811 C 391.746 322.488 364.258 309.639 364.258 309.639 C 364.258 309.639 381.012 281.062 402.947 275.383 C 424.882 269.705 445.059 274.372 448.029 285.807 C 451.001 297.256 435.616 311.133 413.681 316.811 Z" fill="#E1E4E5" style=""/>
  <path d="M 394.344 383.61 C 373.124 391.544 344.454 381.619 344.454 381.619 C 344.454 381.619 358.143 351.455 379.363 343.521 C 400.582 335.587 421.147 338.123 425.286 349.199 C 429.424 360.275 415.578 375.677 394.344 383.61 Z" fill="#E1E4E5" style=""/>
  <path d="M 387.886 261.32 C 387.7 261.6 371.287 289.12 353.895 365.627 C 352.62 371.227 351.344 377.108 350.068 383.237 L 349.695 383.159 L 346.957 382.583 L 346.957 382.568 L 346.941 382.568 L 346.833 382.552 C 346.491 382.443 345.464 382.133 343.924 381.619 C 345.283 375.06 346.715 368.515 348.217 361.986 C 365.641 285.993 381.758 259.174 382.473 257.975 L 387.886 261.32 Z M 63.317 79.713 C 72.931 100.232 100.373 113.191 100.373 113.191 C 100.373 113.191 111.682 82.062 102.068 61.543 C 92.439 41.024 75.98 28.455 65.277 33.479 C 54.575 38.489 53.704 59.194 63.317 79.713 Z M 83.719 313.227 C 102.305 326.191 132.55 323.693 132.55 323.693 C 132.55 323.693 126.779 291.079 108.195 278.117 C 89.596 265.161 69.057 262.505 62.301 272.208 C 55.536 281.897 65.135 300.265 83.719 313.227 Z M 153.765 392.431 C 178.147 388.085 199.59 362.78 199.59 362.78 C 199.59 362.78 169.927 342.035 145.545 346.38 C 121.159 350.742 103.233 364.562 105.51 377.283 C 107.771 389.999 129.384 396.776 153.765 392.431 Z M 122.59 103.95 C 111.871 123.909 117.86 153.653 117.86 153.653 C 117.86 153.653 149.58 144.163 160.298 124.189 C 171.016 104.214 171.266 83.509 160.842 77.924 C 150.435 72.34 133.308 83.991 122.59 103.95 Z M 134.256 219.145 C 134.582 223.065 135.018 225.757 135.127 226.441 C 135.143 226.52 135.143 226.582 135.158 226.613 L 135.158 226.628 C 135.158 226.628 135.174 226.628 135.174 226.613 L 135.283 226.597 C 135.625 226.488 136.652 226.177 138.192 225.663 C 146.421 222.879 169.133 213.997 178.141 197.957 C 189.233 178.201 189.854 157.48 179.556 151.708 C 169.258 145.921 151.912 157.247 140.821 177.003 C 135.858 185.855 134.194 196.713 133.898 206.032 C 133.727 211.041 133.944 215.599 134.256 219.145 Z M 68.437 160.84 C 90.372 166.518 117.86 153.668 117.86 153.668 C 117.86 153.668 101.106 125.091 79.171 119.413 C 57.237 113.735 37.06 118.402 34.088 129.836 C 31.118 141.285 46.502 155.162 68.437 160.84 Z" fill="#E1E4E5" style=""/>
  <path d="M 87.775 227.639 C 108.993 235.573 137.664 225.648 137.664 225.648 C 137.664 225.648 123.974 195.484 102.756 187.55 C 81.537 179.617 60.971 182.152 56.832 193.228 C 52.695 204.304 66.54 219.706 87.775 227.639 Z" fill="#E1E4E5" style=""/>
  <path d="M 94.231 105.35 C 94.417 105.63 110.83 133.149 128.222 209.656 C 129.497 215.256 130.773 221.137 132.049 227.266 L 132.422 227.188 L 135.16 226.613 L 135.16 226.597 L 135.176 226.597 L 135.284 226.582 C 135.626 226.473 136.654 226.161 138.193 225.648 C 136.833 219.089 135.402 212.544 133.9 206.016 C 116.476 130.023 100.36 103.203 99.645 102.005 L 94.231 105.35 Z M 410.306 69.388 C 399.755 91.909 369.636 106.132 369.636 106.132 C 369.636 106.132 357.223 71.966 367.775 49.446 C 378.344 26.925 396.408 13.129 408.155 18.644 C 419.902 24.141 420.859 46.867 410.306 69.388 Z M 345.253 95.99 C 357.017 117.896 350.444 150.542 350.444 150.542 C 350.444 150.542 315.629 140.126 303.865 118.203 C 292.101 96.28 291.828 73.555 303.267 67.425 C 314.69 61.295 333.489 74.084 345.253 95.99 Z M 332.448 222.424 C 332.09 226.727 331.611 229.681 331.492 230.432 C 331.475 230.517 331.475 230.586 331.458 230.62 L 331.458 230.637 C 331.458 230.637 331.441 230.637 331.441 230.62 L 331.321 230.602 C 330.946 230.483 329.819 230.142 328.129 229.578 C 319.096 226.522 294.168 216.773 284.282 199.169 C 272.108 177.484 271.425 154.742 282.728 148.408 C 294.031 142.056 313.069 154.486 325.242 176.17 C 330.69 185.885 332.516 197.803 332.841 208.031 C 332.998 212.832 332.867 217.639 332.448 222.424 Z M 404.687 158.43 C 380.613 164.662 350.443 150.559 350.443 150.559 C 350.443 150.559 368.832 119.194 392.906 112.961 C 416.981 106.729 439.126 111.852 442.387 124.401 C 445.648 136.967 428.762 152.198 404.687 158.43 Z" fill="#E1E4E5" style=""/>
  <path d="M 383.464 231.746 C 360.175 240.454 328.707 229.561 328.707 229.561 C 328.707 229.561 343.732 196.454 367.022 187.746 C 390.311 179.039 412.883 181.822 417.425 193.979 C 421.967 206.136 406.77 223.038 383.464 231.746 Z" fill="#E1E4E5" style=""/>
  <path d="M 376.378 97.526 C 376.173 97.834 358.16 128.038 339.071 212.008 C 337.611 218.438 336.211 224.881 334.871 231.337 L 334.461 231.251 L 331.456 230.62 L 331.456 230.602 L 331.439 230.602 L 331.32 230.586 C 330.944 230.466 329.817 230.125 328.127 229.561 C 329.619 222.362 331.19 215.179 332.839 208.014 C 351.963 124.607 369.651 95.171 370.436 93.856 L 376.378 97.526 Z" fill="#E1E4E5" style=""/>
  <circle cx="247.597" cy="233.531" r="157.513" fill="#ffac35" style=""/>
  <ellipse rx="12.141" ry="11.674" transform="matrix(0.720805, -0.693138, -0.693138, -0.720805, 90.599579, 399.230774)" fill="#ffac35" style=""/>
  <ellipse rx="12.141" ry="11.674" transform="matrix(-0.999809, -0.019564, -0.019564, 0.999809, 464.498688, 161.961014)" fill="#ffac35" style=""/>
  <circle cx="207.479" cy="419.288" r="6.071" transform="matrix(-0.720805, 0.693138, -0.693138, -0.720805, 484.242676, 474.84967)" fill="#E1E4E5" style=""/>
  <circle cx="707.973" cy="359.736" r="6.071" transform="matrix(0.999809, 0.019564, -0.019564, 0.999809, -236.704468, -107.058182)" fill="#E1E4E5" style=""/>
  <circle r="19.528" transform="matrix(0.875642, -0.482961, -0.482961, -0.875642, 27.292225, 189.949509)" fill="#ffac35" style=""/>
  <circle r="19.528" transform="matrix(-0.960677, -0.277667, -0.277667, 0.960677, 381.269257, 386.413025)" fill="#ffac35" style=""/>
  <text style="fill: rgb(255, 255, 255); font-family: 'poppin', sans-serif; font-size: 286.7px; font-weight: 700; stroke-width: 34px; white-space: pre;" x="180.144" y="343.446">?</text>
</svg>