<?xml version="1.0" encoding="utf-8"?>
<!-- Generator: Adobe Illustrator 26.0.1, SVG Export Plug-In . SVG Version: 6.00 Build 0)  -->
<svg version="1.1" id="Layer_1" xmlns="http://www.w3.org/2000/svg" xmlns:xlink="http://www.w3.org/1999/xlink" x="0px" y="0px"
	 viewBox="0 0 120 80" style="enable-background:new 0 0 120 80;" xml:space="preserve">
<style type="text/css">
	.st0{fill:none;}
	.st1{fill:#4A4CFB;}
	.st2{fill:#E1E4E5;}
	.st3{fill-rule:evenodd;clip-rule:evenodd;fill:#FFFFFF;}
	.st4{fill:none;stroke:#E1E4E5;stroke-width:0.5333;stroke-miterlimit:10;}
	.st5{fill-rule:evenodd;clip-rule:evenodd;fill:#FFFFFF;stroke:#E1E4E5;stroke-width:0.5333;stroke-miterlimit:10;}
	.st6{fill:none;stroke:#E1E4E5;stroke-width:0.5395;stroke-linecap:round;stroke-linejoin:round;stroke-miterlimit:10;}
	.st7{fill-rule:evenodd;clip-rule:evenodd;fill:#4A4CFB;}
	.st8{fill:none;stroke:#FFFFFF;stroke-width:2.0784;stroke-linecap:round;stroke-linejoin:round;stroke-miterlimit:10;}
</style>
<path class="st0" d="M0,0h120v80H0V0z"/>
<circle class="st1" cx="89.4" cy="56.1" r="1.8"/>
<circle class="st1" cx="95.2" cy="33.4" r="2.5"/>
<circle class="st1" cx="29.1" cy="39.4" r="1.5"/>
<circle class="st1" cx="41.6" cy="67.8" r="1.7"/>
<circle class="st1" cx="49.2" cy="44.9" r="0.8"/>
<circle class="st2" cx="80.5" cy="68.4" r="1"/>
<circle class="st2" cx="26.1" cy="52.7" r="1.4"/>
<circle class="st2" cx="97.8" cy="52.7" r="1.1"/>
<circle class="st2" cx="90.6" cy="21.4" r="1.2"/>
<circle class="st2" cx="22.5" cy="32" r="1.1"/>
<circle class="st2" cx="40.5" cy="16.3" r="1.5"/>
<circle class="st2" cx="79.4" cy="12.2" r="1.7"/>
<path class="st2" d="M28.7,24.1L28.7,24.1c0.1,1.3,1.1,1.4,1.1,1.4s-1.1,0-1.1,1.6c0-1.5-1.1-1.6-1.1-1.6S28.6,25.5,28.7,24.1z
	 M29.9,60.1L29.9,60.1c0.1,1.3,1.1,1.4,1.1,1.4s-1.1,0-1.1,1.6c0-1.5-1.1-1.6-1.1-1.6S29.8,61.4,29.9,60.1z"/>
<path class="st3" d="M81.7,46.2v11.6c0,2.2-1.2,4.2-3.1,5.2l-15,8c-1.7,0.9-3.8,0.9-5.5,0l-15-8c-1.9-1-3.1-3-3.1-5.2V46.2"/>
<path class="st4" d="M81.7,46.2v11.6c0,2.2-1.2,4.2-3.1,5.2l-15,8c-1.7,0.9-3.8,0.9-5.5,0l-15-8c-1.9-1-3.1-3-3.1-5.2V46.2"/>
<path class="st5" d="M52.3,19.4l35.5,18.3c1.4,0.7,2,2.5,1.3,4c-0.3,0.5-0.7,1-1.2,1.2L74.6,50c-1.7,0.9-3.8,0.9-5.5,0L33.6,31.7
	c-1.4-0.7-2-2.5-1.3-4c0.3-0.5,0.7-1,1.2-1.2l13.3-7.1C48.5,18.5,50.6,18.5,52.3,19.4z"/>
<ellipse class="st2" cx="72.2" cy="44.4" rx="1.1" ry="0.9"/>
<path class="st4" d="M69.1,19.4L33.6,37.7c-1.4,0.7-2,2.5-1.3,4c0.3,0.5,0.7,1,1.2,1.2L46.8,50c1.7,0.9,3.8,0.9,5.5,0l35.5-18.4
	c1.4-0.7,2-2.5,1.3-4c-0.3-0.5-0.7-1-1.2-1.2l-13.3-7.1C72.9,18.5,70.9,18.5,69.1,19.4z"/>
<path class="st3" d="M60.7,71.8V45.7C60.7,45.7,60.7,71.8,60.7,71.8z"/>
<path class="st4" d="M60.7,71.8V45.7"/>
<path class="st6" d="M32.2,62.9h2.7 M29.1,61.4h5.8 M32.4,64.4h2.5 M87.8,62.9h-2.7 M90.9,61.4h-5.8 M87.7,64.4h-2.5"/>
<path class="st7" d="M46.9,25.6v-7c0-2.4,1.3-4.5,3.3-5.7L56.8,9c2.1-1.2,4.6-1.2,6.7,0l6.6,3.8c2,1.2,3.3,3.4,3.3,5.7v7
	c0,2.4-1.3,4.5-3.3,5.7l-6.6,3.8c-2.1,1.2-4.6,1.2-6.7,0l-6.6-3.8C48.1,30.1,46.9,27.9,46.9,25.6z"/>
<path class="st8" d="M60.1,22.1v-6.6 M60.1,27.2c-0.2,0-0.4,0.2-0.4,0.4c0,0,0,0,0,0c0,0.2,0.2,0.4,0.4,0.4c0.2,0,0.3-0.2,0.4-0.4
	C60.5,27.4,60.3,27.2,60.1,27.2C60.1,27.2,60.1,27.2,60.1,27.2"/>
</svg>
