<?xml version="1.0" encoding="utf-8"?>
<svg viewBox="60.299 101.62 340.431 231.18" xmlns="http://www.w3.org/2000/svg" xmlns:bx="https://boxy-svg.com">
  <defs>
    <linearGradient id="a" x1="495.725" y1="3.879" x2="501.486" y2="774.606" gradientUnits="userSpaceOnUse" gradientTransform="matrix(0.584224, 0, 0, 0.584224, -59.775623, 20.512655)">
      <stop stop-color="#fff"/>
      <stop offset="1" stop-color="#EEE"/>
    </linearGradient>
    <linearGradient id="b" x1="395.83" y1="616.297" x2="389.784" y2="-190.203" gradientUnits="userSpaceOnUse" gradientTransform="matrix(0.584224, 0, 0, 0.584224, -59.775623, 20.512655)">
      <stop stop-color="#fff"/>
      <stop offset="1" stop-color="#EEE"/>
    </linearGradient>
  </defs>
  <g transform="matrix(1, 0, 0, 1, 32.852562, 20.833332)">
    <path fill-rule="evenodd" clip-rule="evenodd" d="M 269.919 288.089 L 119.27 288.089 C 110.336 288.089 103.093 280.052 103.093 270.136 C 103.093 260.222 110.336 252.184 119.27 252.184 L 176.068 252.184 C 182.445 252.184 187.616 246.45 187.618 239.373 L 187.618 238.768 C 187.622 232.015 182.689 226.537 176.603 226.537 L 176.109 226.537 C 160.06 226.537 147.117 212.029 147.332 194.223 C 147.361 191.823 147.361 189.425 147.334 187.025 C 147.127 169.225 160.066 154.727 176.057 154.727 L 245.977 154.727 C 253.129 154.727 258.926 148.294 258.926 140.358 C 258.926 128.059 267.91 118.089 278.993 118.089 L 294.326 118.089 C 305.408 118.089 314.392 128.059 314.392 140.358 L 314.392 180.903 C 314.392 192.347 322.752 201.624 333.064 201.624 L 342.125 201.624 C 356.347 201.624 367.877 214.419 367.877 230.201 C 367.877 245.984 356.347 258.779 342.125 258.779 L 295.254 258.779 C 288.719 258.779 283.619 264.707 283.805 271.956 C 283.808 272.087 283.811 272.217 283.813 272.348 C 284.005 280.988 277.707 288.089 269.919 288.089 Z" fill="url(#a)" style=""/>
    <path fill-rule="evenodd" clip-rule="evenodd" d="M 129.659 102.942 L 286.849 102.942 C 296.171 102.942 303.729 111.353 303.729 121.729 C 303.729 132.103 296.171 140.514 286.849 140.514 L 227.584 140.514 C 220.931 140.514 215.537 146.515 215.533 153.919 L 215.533 154.553 C 215.53 161.619 220.676 167.351 227.026 167.351 L 227.542 167.351 C 244.289 167.351 257.793 182.533 257.569 201.166 C 257.538 203.676 257.538 206.187 257.567 208.698 C 257.783 227.322 244.281 242.494 227.596 242.494 L 154.641 242.494 C 147.177 242.494 141.128 249.226 141.128 257.53 C 141.128 270.4 131.755 280.832 120.191 280.832 L 104.191 280.832 C 92.628 280.832 83.253 270.4 83.253 257.53 L 83.253 215.103 C 83.253 203.128 74.53 193.421 63.771 193.421 L 54.316 193.421 C 39.476 193.421 27.446 180.032 27.446 163.517 C 27.446 147.002 39.476 133.613 54.316 133.613 L 103.222 133.613 C 110.041 133.613 115.362 127.41 115.169 119.825 L 115.159 119.414 C 114.96 110.373 121.533 102.942 129.659 102.942 Z" fill="url(#b)" style=""/>
    <path d="M 279.319 210.117 C 286.59 223.658 282.527 243.838 282.527 243.838 C 282.527 243.838 261.007 237.4 253.736 223.848 C 246.462 210.297 246.294 196.249 253.366 192.46 C 260.427 188.67 272.046 196.576 279.319 210.117 Z M 71.177 282.294 C 74.783 279.141 75.813 272.807 75.813 272.807 C 75.813 272.807 68.824 272.329 65.218 275.483 C 61.611 278.636 60.02 282.719 61.666 284.601 C 63.313 286.482 67.569 285.451 71.177 282.294 Z M 311.165 91.046 C 307.32 93.904 305.791 100.135 305.791 100.135 C 305.791 100.135 312.72 101.167 316.565 98.309 C 320.41 95.452 322.321 91.508 320.828 89.501 C 319.337 87.495 315.012 88.186 311.165 91.046 Z" fill="#E1E4E5" style=""/>
    <ellipse rx="6.059" ry="5.827" transform="matrix(0.720805, -0.693138, -0.693138, -0.720805, 130.334869, 303.567596)" style="fill: rgb(244, 67, 54);"/>
    <ellipse rx="8.238" ry="7.92" transform="matrix(-0.999809, -0.019564, -0.019564, 0.999809, 350.537354, 143.657623)" style="fill: rgb(244, 67, 54);"/>
    <circle cx="214.081" cy="390.172" r="4.118" transform="matrix(-0.720805, 0.693138, -0.693138, -0.720805, 490.048968, 381.310655)" fill="#E1E4E5" style=""/>
    <circle cx="619.114" cy="171.365" r="4.118" transform="matrix(0.875642, -0.482961, 0.482961, 0.875642, -322.958799, 269.581704)" fill="#E1E4E5" style=""/>
    <circle cx="701.849" cy="332.134" r="4.118" transform="matrix(0.999809, 0.019564, -0.019564, 0.999809, -344.95384, -131.247291)" fill="#E1E4E5" style=""/>
    <circle r="9.839" transform="matrix(0.875642, -0.482961, -0.482961, -0.875642, 55.800228, 165.181808)" style="fill: rgb(244, 67, 54);"/>
    <circle r="4.663" transform="matrix(0.875642, -0.482961, -0.482961, -0.875642, 93.075539, 105.367546)" fill="#E1E4E5" style=""/>
    <circle r="9.609" transform="matrix(-0.960677, -0.277667, -0.277667, 0.960677, 309.149017, 283.734894)" style="fill: rgb(244, 67, 54);"/>
    <path fill-rule="evenodd" clip-rule="evenodd" d="M 99.122 222.402 L 99.122 167.237 C 99.122 148.679 108.993 131.524 125.026 122.186 L 177.154 91.848 C 193.363 82.418 213.387 82.418 229.595 91.848 L 281.725 122.186 C 297.769 131.524 307.638 148.679 307.638 167.237 L 307.638 222.402 C 307.638 240.96 297.769 258.116 281.737 267.452 L 229.607 297.792 C 213.399 307.221 193.375 307.221 177.165 297.792 L 125.038 267.452 C 108.993 258.116 99.122 240.96 99.122 222.402 Z" style="fill: rgb(244, 67, 54);"/>
    <path clip-rule="evenodd" d="M 352.979 184.499 L 346.735 178.256 L 352.979 172.013 L 359.221 178.256 L 352.979 184.499 Z M 257.191 93.273 L 250.947 87.031 L 257.191 80.787 L 263.433 87.031 L 257.191 93.273 Z M 61.231 217.993 L 54.988 211.75 L 61.231 205.508 L 67.474 211.75 L 61.231 217.993 Z" stroke="#E1E4E5" stroke-width="5.673" stroke-linecap="round" stroke-linejoin="round" style=""/>
    <line style="fill: rgb(255, 255, 255); stroke: rgb(255, 255, 255); stroke-linecap: round; stroke-width: 17px;" x1="173.609" y1="163.143" x2="237.492" y2="227.026" transform="matrix(0.995405, 0.095755, -0.095755, 0.995405, 19.624834, -18.786061)"/>
    <line style="fill: rgb(255, 255, 255); stroke: rgb(255, 255, 255); stroke-linecap: round; stroke-width: 17px;" x1="123.866" y1="118.86" x2="187.749" y2="182.742" transform="matrix(0.026267, 0.999655, -0.999655, 0.026267, 352.444022, 33.298747)" bx:origin="0.552 1.232"/>
  </g>
</svg>