<svg xmlns="http://www.w3.org/2000/svg" viewBox="0 0 120 80"><defs><style>.cls-1,.cls-7{fill:none;}.cls-2,.cls-6{fill:#666bff;}.cls-3{fill:#fbb03b;}.cls-4{fill:#e1e4e5;}.cls-5{fill:#ccf;}.cls-5,.cls-6{fill-rule:evenodd;}.cls-7{stroke:#fff;stroke-linecap:round;stroke-linejoin:round;stroke-width:1.87px;}</style></defs><g id="Layer_2" data-name="Layer 2"><g id="Layer_1-2" data-name="Layer 1"><path class="cls-1" d="M0,0H120V80H0Z"/><circle class="cls-2" cx="84.08" cy="62.72" r="2.35"/><circle class="cls-2" cx="87.14" cy="16.66" r="1.82"/><circle class="cls-3" cx="46.73" cy="40.43" r="1.93"/><circle class="cls-2" cx="24.2" cy="47.53" r="2.2"/><circle class="cls-4" cx="90.83" cy="56.45" r="1.32"/><circle class="cls-4" cx="50.91" cy="69.5" r="1.45"/><circle class="cls-4" cx="95.82" cy="29.96" r="1.61"/><circle class="cls-4" cx="72.82" cy="50.23" r="1.45"/><circle class="cls-4" cx="27.63" cy="18.85" r="1.93"/><ellipse class="cls-4" cx="72.74" cy="68.81" rx="1.48" ry="1.19" transform="translate(-23.22 97.4) rotate(-60)"/><path class="cls-4" d="M25.66,31.57h0c.13,1.77,1.45,1.8,1.45,1.8s-1.46,0-1.46,2.07c0-2-1.45-2.07-1.45-2.07S25.54,33.34,25.66,31.57Zm6.9,27.37h0C32.7,60.71,34,60.73,34,60.73s-1.4,0-1.4,2.07c0-2-1.4-2.07-1.4-2.07S32.44,60.71,32.56,58.94ZM96.48,40h0c.12,1.77,1.38,1.79,1.38,1.79s-1.39,0-1.39,2.08c0-2-1.4-2.08-1.4-2.08S96.36,41.77,96.48,40Z"/><path class="cls-5" d="M34.39,26.62a28.58,28.58,0,0,0-1,17.59l4.92-1.41a3.15,3.15,0,0,1,3.13.84l7.92,8.16a2.66,2.66,0,0,0,2.08.81l3-.17A3.15,3.15,0,0,1,57.79,56l-1.09,9c.5.07,1,.13,1.51.17a29.12,29.12,0,0,0,4.38.06l-.71-.72a3.13,3.13,0,0,1-.81-3.08l2-7.11A3.17,3.17,0,0,1,66.42,52l9.77,1a3.15,3.15,0,0,1,2.29,4.89L77,60.13a27.81,27.81,0,0,0,4.28-3.68l-3.52-10.3a2.68,2.68,0,0,0-1.61-1.66L66.71,41a3.15,3.15,0,0,1-1.11-5.21L82.65,19.05a28.71,28.71,0,0,0-9.51-7.56L68.7,25.75a3.14,3.14,0,0,1-2.41,2.16L53.7,30.33a2.68,2.68,0,0,0-1.82,1.3L50,34.92a3.15,3.15,0,0,1-4.76.83L34.39,26.62ZM56.24,64.86l1.09-9a2.68,2.68,0,0,0-2.82-3l-3,.17a3.1,3.1,0,0,1-2.44-1L41.12,44a2.67,2.67,0,0,0-2.67-.71l-4.91,1.41A28.58,28.58,0,0,0,56.24,64.86ZM89,34.36a28.27,28.27,0,0,1-7.33,21.71L78.18,46a3.16,3.16,0,0,0-1.89-1.94l-9.42-3.5a2.69,2.69,0,0,1-1-4.44L83,19.41A27.93,27.93,0,0,1,89,34.36ZM34.57,26.17,45.51,35.4a2.7,2.7,0,0,0,4.07-.71l1.9-3.29a3.09,3.09,0,0,1,2.13-1.52L66.2,27.46a2.7,2.7,0,0,0,2.06-1.84l4.46-14.34a27.72,27.72,0,0,0-9.4-2.55A28.26,28.26,0,0,0,34.57,26.17ZM63.2,65.11A28.26,28.26,0,0,0,76,60.8l2.12-3.18a2.69,2.69,0,0,0-2-4.17l-9.77-1a2.7,2.7,0,0,0-2.87,2l-2,7.11a2.7,2.7,0,0,0,.69,2.63l1,1Z"/><path class="cls-6" d="M59.23,12.77a14.93,14.93,0,1,1-21.12,0A14.94,14.94,0,0,1,59.23,12.77Z"/><path class="cls-7" d="M48.67,29.48a.49.49,0,0,1,.5.49.48.48,0,0,1-.5.48.49.49,0,0,1-.51-.48.5.5,0,0,1,.51-.49m8.09-8.85a13.24,13.24,0,0,0-16.18,0M44,25.34a7.74,7.74,0,0,1,9.44,0"/></g></g></svg>