<?xml version="1.0" encoding="utf-8"?>
<svg viewBox="88.042 137.648 367.409 249.499" xmlns="http://www.w3.org/2000/svg">
  <defs>
    <linearGradient id="a" x1="495.725" y1="3.879" x2="501.486" y2="774.606" gradientUnits="userSpaceOnUse" gradientTransform="matrix(0.63052, 0, 0, 0.63052, -6.089695, 72.596042)">
      <stop stop-color="#fff"/>
      <stop offset="1" stop-color="#EEE"/>
    </linearGradient>
    <linearGradient id="b" x1="395.83" y1="616.297" x2="389.784" y2="-190.203" gradientUnits="userSpaceOnUse" gradientTransform="matrix(0.63052, 0, 0, 0.63052, -6.089695, 72.596042)">
      <stop stop-color="#fff"/>
      <stop offset="1" stop-color="#EEE"/>
    </linearGradient>
  </defs>
  <path fill-rule="evenodd" clip-rule="evenodd" d="M 349.729 361.376 L 187.144 361.376 C 177.501 361.376 169.684 352.702 169.684 342.001 C 169.684 331.3 177.501 322.627 187.144 322.627 L 248.442 322.627 C 255.324 322.627 260.905 316.437 260.907 308.8 L 260.908 308.147 C 260.912 300.859 255.587 294.947 249.02 294.947 L 248.486 294.947 C 231.165 294.947 217.197 279.289 217.43 260.072 C 217.46 257.482 217.461 254.894 217.432 252.303 C 217.208 233.094 231.173 217.447 248.431 217.447 L 323.891 217.447 C 331.609 217.447 337.867 210.504 337.867 201.938 C 337.867 188.665 347.562 177.906 359.523 177.906 L 376.071 177.906 C 388.031 177.906 397.727 188.665 397.727 201.938 L 397.727 245.697 C 397.727 258.047 406.75 268.059 417.879 268.059 L 427.658 268.059 C 443.007 268.059 455.451 281.867 455.451 298.901 C 455.451 315.935 443.007 329.744 427.658 329.744 L 377.073 329.744 C 370.02 329.744 364.517 336.142 364.717 343.965 C 364.72 344.106 364.723 344.247 364.726 344.388 C 364.932 353.712 358.135 361.376 349.729 361.376 Z" fill="url(#a)" style=""/>
  <path fill-rule="evenodd" clip-rule="evenodd" d="M 198.356 161.559 L 368.002 161.559 C 378.063 161.559 386.219 170.635 386.219 181.833 C 386.219 193.03 378.063 202.107 368.002 202.107 L 304.041 202.107 C 296.86 202.107 291.038 208.583 291.035 216.574 L 291.034 217.258 C 291.031 224.884 296.586 231.071 303.439 231.071 L 303.996 231.071 C 322.069 231.071 336.643 247.456 336.401 267.565 C 336.369 270.274 336.368 272.984 336.399 275.694 C 336.633 295.795 322.061 312.168 304.054 312.168 L 225.316 312.168 C 217.262 312.168 210.734 319.434 210.734 328.396 C 210.734 342.286 200.617 353.545 188.137 353.545 L 170.87 353.545 C 158.39 353.545 148.273 342.286 148.273 328.396 L 148.273 282.607 C 148.273 269.683 138.859 259.206 127.246 259.206 L 117.042 259.206 C 101.027 259.206 88.042 244.757 88.042 226.934 C 88.042 209.109 101.027 194.66 117.042 194.66 L 169.824 194.66 C 177.184 194.66 182.926 187.965 182.718 179.778 L 182.708 179.335 C 182.492 169.578 189.584 161.559 198.356 161.559 Z" fill="url(#b)" style=""/>
  <path d="M 359.874 277.226 C 367.722 291.84 363.338 313.619 363.338 313.619 C 363.338 313.619 340.112 306.67 332.264 292.045 C 324.415 277.42 324.233 262.258 331.865 258.169 C 339.486 254.08 352.027 262.612 359.874 277.226 Z M 135.24 355.123 C 139.131 351.719 140.242 344.884 140.242 344.884 C 140.242 344.884 132.699 344.367 128.808 347.771 C 124.915 351.175 123.199 355.581 124.975 357.612 C 126.752 359.643 131.345 358.529 135.24 355.123 Z M 394.245 148.719 C 390.095 151.804 388.445 158.529 388.445 158.529 C 388.445 158.529 395.923 159.642 400.073 156.559 C 404.223 153.474 406.285 149.218 404.674 147.052 C 403.064 144.887 398.397 145.631 394.245 148.719 Z" fill="#E1E4E5" style=""/>
  <ellipse rx="6.54" ry="6.288" transform="matrix(0.720805, -0.693138, -0.693138, -0.720805, 199.085968, 378.081451)" fill="#FBB03B" style=""/>
  <ellipse rx="8.89" ry="8.548" transform="matrix(-0.999809, -0.019564, -0.019564, 0.999809, 436.73819, 205.499527)" fill="#FBB03B" style=""/>
  <circle cx="214.081" cy="390.172" r="4.445" transform="matrix(-0.720805, 0.693138, -0.693138, -0.720805, 553.646118, 451.45755)" fill="#E1E4E5" style=""/>
  <circle cx="619.114" cy="171.365" r="4.445" transform="matrix(0.875642, -0.482961, 0.482961, 0.875642, -240.610199, 329.598663)" fill="#E1E4E5" style=""/>
  <circle cx="701.849" cy="332.134" r="4.445" transform="matrix(0.999809, 0.019564, -0.019564, 0.999809, -258.775208, -63.787476)" fill="#E1E4E5" style=""/>
  <circle r="10.619" transform="matrix(0.875642, -0.482961, -0.482961, -0.875642, 118.644882, 228.729355)" fill="#FBB03B" style=""/>
  <circle r="5.032" transform="matrix(0.875642, -0.482961, -0.482961, -0.875642, 158.874054, 164.175186)" fill="#E1E4E5" style=""/>
  <circle r="10.371" transform="matrix(-0.960677, -0.277667, -0.277667, 0.960677, 392.070038, 356.677124)" fill="#FBB03B" style=""/>
  <path fill-rule="evenodd" clip-rule="evenodd" d="M 165.399 290.483 L 165.399 230.948 C 165.399 210.92 176.052 192.404 193.355 182.327 L 249.614 149.584 C 267.108 139.407 288.718 139.407 306.211 149.584 L 362.472 182.327 C 379.786 192.404 390.439 210.92 390.439 230.948 L 390.439 290.483 C 390.439 310.512 379.786 329.027 362.484 339.104 L 306.224 371.848 C 288.73 382.024 267.12 382.024 249.627 371.848 L 193.367 339.104 C 176.052 329.027 165.399 310.512 165.399 290.483 Z" fill="#FBB03B" style=""/>
  <path d="M 277.919 260.716 L 277.919 204.457 M 277.906 304.474 C 276.182 304.474 274.781 305.874 274.794 307.599 C 274.795 309.325 276.194 310.725 277.919 310.725 C 279.645 310.725 281.043 309.325 281.044 307.599 C 281.042 305.869 279.637 304.469 277.906 304.474" stroke="#fff" stroke-width="29.743" stroke-linecap="round" stroke-linejoin="round" style=""/>
  <path clip-rule="evenodd" d="M 439.372 249.578 L 432.634 242.84 L 439.372 236.102 L 446.109 242.84 L 439.372 249.578 Z M 335.993 151.123 L 329.255 144.385 L 335.993 137.648 L 342.731 144.385 L 335.993 151.123 Z M 124.505 285.726 L 117.767 278.989 L 124.505 272.251 L 131.242 278.989 L 124.505 285.726 Z" stroke="#E1E4E5" stroke-width="5.673" stroke-linecap="round" stroke-linejoin="round" style=""/>
</svg>